<svg xmlns="http://www.w3.org/2000/svg" xmlns:xlink="http://www.w3.org/1999/xlink" width="30" height="30" viewBox="0 0 30 30"><defs><path id="a" d="M0 0h14v14H0z"/></defs><g fill="none" fill-rule="evenodd"><rect width="30" height="30" fill="#4F6676" rx="15"/><g transform="translate(8 8)"><mask id="b" fill="#fff"><use xlink:href="#a"/></mask><path fill="#FFF" d="M11.382 1.4c.826 0 1.218.448 1.218 1.274v8.652c0 .826-.392 1.274-1.218 1.274H2.73c-.826 0-1.33-.448-1.33-1.274.014-5.054 4.732-9.94 9.982-9.926zm-8.652 0l.35.91.98.056-.756.616.252.938-.812-.532-.84.532.252-.938-.756-.616.98-.056.35-.91zM2.24 0A2.247 2.247 0 0 0 0 2.24v9.52A2.247 2.247 0 0 0 2.24 14h9.52A2.247 2.247 0 0 0 14 11.76V2.24A2.247 2.247 0 0 0 11.76 0H2.24z" mask="url(#b)"/></g></g></svg>